# File created by Blade
# Date/Time:  Tue Sep 30 19:08:00 2014
#---------------------------------------------------------
:version 1.10
:name HOM
:units
  mass 1.0
  length 1.000000
  angle deg
:documentation
     Acclaim Skeleton File
:root
   axis xyz
   order TX TY TZ RX RY RZ
   position 0.000000 0.000000 0.000000
   orientation 0 0 0
:bonedata
   begin
      id 1
      name Spine_dum
      direction 0.000000 1.000000 0.000000
      length 7.508948
      axis 0.0 0.0 0.0 xyz
   end
   begin
      id 2
      name LeftUpLeg_dum
      direction 1.000000 0.000000 0.000000
      length 3.000560
      axis 0.0 0.0 0.0 xyz
   end
   begin
      id 3
      name RightUpLeg_dum
      direction -1.000000 0.000000 0.000000
      length 3.000560
      axis 0.0 0.0 0.0 xyz
   end
   begin
      id 4
      name Spine
      direction 0.000000 1.000000 0.000000
      length 0.000000
      axis 0.0 0.0 0.0 xyz
      dof rx ry rz
   end
   begin
      id 5
      name Spine_dum1
      direction 0.000000 1.000000 0.000000
      length 13.861154
      axis 0.0 0.0 0.0 xyz
   end
   begin
      id 6
      name Spine_dum2
      direction 0.000000 1.000000 0.000000
      length 8.204781
      axis 0.0 0.0 0.0 xyz
   end
   begin
      id 7
      name Spine_dum3
      direction 0.000000 1.000000 0.000000
      length 8.204781
      axis 0.0 0.0 0.0 xyz
   end
   begin
      id 8
      name Head
      direction 0.000000 1.000000 0.000000
      length 4.527550
      axis 0.0 0.0 0.0 xyz
      dof rx ry rz
   end
   begin
      id 9
      name LeftShoulder
      direction 1.000000 0.000000 0.000000
      length 6.635956
      axis 0.0 0.0 -90.0 xyz
      dof rx ry rz
   end
   begin
      id 10
      name LeftArm
      direction 1.000000 0.000000 0.000000
      length 10.274218
      axis 0.0 0.0 -90.0 xyz
      dof rx ry rz
   end
   begin
      id 11
      name LeftForeArm
      direction 1.000000 0.000000 0.000000
      length 8.522147
      axis 0.0 0.0 -90.0 xyz
      dof ry rz rx
   end
   begin
      id 12
      name LeftHand
      direction 0.000000 0.000000 0.000000
      length 0.000000
      axis 0.0 0.0 -90.0 xyz
      dof rx ry rz
   end
   begin
      id 13
      name LeftHand_dum1
      direction 0.000000 0.000000 0.000000
      length 0.000000
      axis 0.0 0.0 -90.0 xyz
   end
   begin
      id 14
      name LeftHand_dum2
      direction 1.000000 0.000000 0.000000
      length 3.937000
      axis 0.0 0.0 -90.0 xyz
   end
   begin
      id 15
      name LeftHandThumb1
      direction 0.000000 0.000000 1.000000
      length 3.937000
      axis 0.0 0.0 -90.0 xyz
      dof rx rz ry
   end
   begin
      id 16
      name RightShoulder
      direction -1.000000 0.000000 0.000000
      length 6.635956
      axis 0.0 0.0 90.0 xyz
      dof rx ry rz
   end
   begin
      id 17
      name RightArm
      direction -1.000000 0.000000 0.000000
      length 10.274218
      axis 0.0 0.0 90.0 xyz
      dof rx ry rz
   end
   begin
      id 18
      name RightForeArm
      direction -1.000000 0.000000 0.000000
      length 8.522147
      axis 0.0 0.0 90.0 xyz
      dof ry rz rx
   end
   begin
      id 19
      name RightHand
      direction 0.000000 0.000000 0.000000
      length 0.000000
      axis 0.0 0.0 90.0 xyz
      dof rx ry rz
   end
   begin
      id 20
      name RightHand_dum1
      direction 0.000000 0.000000 0.000000
      length 0.000000
      axis 0.0 0.0 90.0 xyz
   end
   begin
      id 21
      name RightHand_dum2
      direction -1.000000 0.000000 0.000000
      length 3.937000
      axis 0.0 0.0 90.0 xyz
   end
   begin
      id 22
      name RightHandThumb1
      direction 0.000000 0.000000 1.000000
      length 3.937000
      axis 0.0 0.0 90.0 xyz
      dof rx rz ry
   end
   begin
      id 23
      name LeftUpLeg
      direction 0.000000 -1.000000 0.000000
      length 16.490845
      axis 0.0 0.0 0.0 xyz
      dof rx ry rz
   end
   begin
      id 24
      name LeftLeg
      direction 0.000000 -1.000000 0.000000
      length 14.556576
      axis 0.0 0.0 0.0 xyz
      dof rx ry rz
   end
   begin
      id 25
      name LeftFoot
      direction 0.000000 -0.258819 0.965926
      length 4.831116
      axis 15.0 0.0 0.0 xyz
      dof rx ry rz
   end
   begin
      id 26
      name LeftToeBase
      direction 0.000000 0.000000 1.000000
      length 2.952750
      axis 0.0 0.0 0.0 xyz
      dof rx ry rz
   end
   begin
      id 27
      name RightUpLeg
      direction 0.000000 -1.000000 0.000000
      length 16.490845
      axis 0.0 0.0 0.0 xyz
      dof rx ry rz
   end
   begin
      id 28
      name RightLeg
      direction 0.000000 -1.000000 0.000000
      length 14.556576
      axis 0.0 0.0 0.0 xyz
      dof rx ry rz
   end
   begin
      id 29
      name RightFoot
      direction 0.000000 -0.258819 0.965926
      length 4.831116
      axis 15.0 0.0 0.0 xyz
      dof rx ry rz
   end
   begin
      id 30
      name RightToeBase
      direction 0.000000 0.000000 1.000000
      length 2.952750
      axis 0.0 0.0 0.0 xyz
      dof rx ry rz
   end
:hierarchy
   begin
      root Spine_dum LeftUpLeg_dum RightUpLeg_dum
      Spine_dum Spine
      LeftUpLeg_dum LeftUpLeg
      RightUpLeg_dum RightUpLeg
      Spine Spine_dum1 Spine_dum2 Spine_dum3
      Spine_dum1 Head
      Spine_dum2 LeftShoulder
      Spine_dum3 RightShoulder
      LeftShoulder LeftArm
      LeftArm LeftForeArm
      LeftForeArm LeftHand
      LeftHand LeftHand_dum1 LeftHand_dum2
      LeftHand_dum1 LeftHandThumb1
      RightShoulder RightArm
      RightArm RightForeArm
      RightForeArm RightHand
      RightHand RightHand_dum1 RightHand_dum2
      RightHand_dum1 RightHandThumb1
      LeftUpLeg LeftLeg
      LeftLeg LeftFoot
      LeftFoot LeftToeBase
      RightUpLeg RightLeg
      RightLeg RightFoot
      RightFoot RightToeBase
   end

# File created by Blade
# Date/Time:  Thu Sep 25 19:43:58 2014
# Frame Rate: 120.000 fps
#------------------------------------------------------
:FULLY-SPECIFIED
:DEGREES
131
root -3.357878 33.011298 -2.787822 11.888654 4.103220 1.047759
Spine -10.175078 5.107855 3.564186
Head -10.329485 -2.446330 2.315776
LeftShoulder -15.332067 18.927484 21.956468
LeftArm 21.105229 -18.366007 -35.509253
LeftForeArm 12.513884 -0.000000 15.814110
LeftHand -25.575197 -0.000000 -7.583361
LeftHandThumb1 -26.253704 0.000000 33.147579
RightShoulder -20.804906 16.202860 -40.322331
RightArm -3.319114 8.739427 25.185067
RightForeArm -28.538718 -0.000000 14.627233
RightHand -9.806610 -0.000000 12.482928
RightHandThumb1 -24.326973 -0.000000 -32.862282
LeftUpLeg -16.019054 7.825509 -0.827782
LeftLeg 17.216608 -0.000000 -0.000000
LeftFoot -12.781392 -0.432794 -19.829440
LeftToeBase 8.728805 -0.000000 -0.000000
RightUpLeg -8.348869 -4.946910 -0.714328
RightLeg 2.075886 -0.000000 -0.000000
RightFoot -9.222019 -6.797689 2.430651
RightToeBase 1.329539 -0.000000 -0.000000
132
root -3.327847 33.015980 -2.820518 11.943376 4.299831 1.239812
Spine -10.062108 5.126058 3.710534
Head -10.322390 -2.236329 1.906148
LeftShoulder -15.423239 19.083378 21.606064
LeftArm 21.508442 -17.932671 -35.989958
LeftForeArm 12.280835 -0.000000 15.850136
LeftHand -25.599152 0.000000 -7.639600
LeftHandThumb1 -26.253704 0.000000 33.147579
RightShoulder -20.735195 16.152583 -40.382992
RightArm -3.402476 8.843122 25.245466
RightForeArm -28.528254 -0.000000 14.660719
RightHand -9.960110 -0.000000 12.398156
RightHandThumb1 -24.326973 -0.000000 -32.862282
LeftUpLeg -16.700781 8.063387 -1.043665
LeftLeg 18.349618 -0.000000 -0.000000
LeftFoot -12.456323 -1.218069 -20.327362
LeftToeBase 8.717877 -0.000000 -0.000000
RightUpLeg -8.421504 -5.116728 -0.928060
RightLeg 2.081821 -0.000000 -0.000000
RightFoot -9.238467 -6.835278 2.469919
RightToeBase 1.315682 -0.000000 -0.000000
133
root -3.312660 33.021621 -2.861182 12.037300 4.510536 1.362633
Spine -9.978611 5.175545 3.885104
Head -10.313938 -2.017953 1.547609
LeftShoulder -15.472047 19.223216 21.291679
LeftArm 21.877315 -17.662846 -36.551514
LeftForeArm 12.389531 -0.000000 15.949319
LeftHand -25.404176 -0.000000 -7.660430
LeftHandThumb1 -26.253704 0.000000 33.147579
RightShoulder -20.701284 16.168897 -40.416759
RightArm -3.485021 8.745281 25.281669
RightForeArm -28.253782 -0.000000 14.648928
RightHand -10.047279 0.000000 12.244436
RightHandThumb1 -24.326973 -0.000000 -32.862282
LeftUpLeg -17.484107 8.377537 -1.160683
LeftLeg 19.560340 -0.000000 -0.000000
LeftFoot -12.026621 -2.208949 -20.927230
LeftToeBase 8.538525 -0.000000 -0.000000
RightUpLeg -8.276862 -4.577248 -1.161536
RightLeg 1.535599 -0.000000 -0.000000
RightFoot -9.009858 -7.412612 2.859041
RightToeBase 1.365200 -0.000000 -0.000000
134
root -3.285465 33.026427 -2.896014 12.101248 4.749947 1.557186
Spine -9.875202 5.223713 3.991148
Head -10.282635 -1.867498 1.190859
LeftShoulder -15.380040 19.155991 21.098940
LeftArm 21.997756 -17.214584 -37.109254
LeftForeArm 12.206252 -0.000000 16.136462
LeftHand -25.539439 -0.000000 -7.810442
LeftHandThumb1 -26.253704 0.000000 33.147579
RightShoulder -20.662716 16.086899 -40.438347
RightArm -3.606725 8.856350 25.334934
RightForeArm -28.276155 -0.000000 14.679397
RightHand -9.994779 -0.000000 12.195198
RightHandThumb1 -24.326973 -0.000000 -32.862282
LeftUpLeg -18.193044 8.675050 -1.344247
LeftLeg 20.717831 -0.000000 -0.000000
LeftFoot -11.605706 -3.208968 -21.825953
LeftToeBase 8.869989 -0.000000 -0.000000
RightUpLeg -8.294407 -4.698994 -1.378574
RightLeg 1.428667 -0.000000 -0.000000
RightFoot -8.973725 -7.514187 2.923095
RightToeBase 1.307933 -0.000000 -0.000000
135
root -3.256382 33.030174 -2.931128 12.166821 4.970491 1.761211
Spine -9.786092 5.280332 4.080481
Head -10.225668 -1.686299 0.835864
LeftShoulder -15.316133 19.228462 20.880997
LeftArm 22.247426 -16.842874 -37.731682
LeftForeArm 12.141977 -0.000000 16.248944
LeftHand -25.519170 -0.000000 -7.655732
LeftHandThumb1 -26.253704 0.000000 33.147579
RightShoulder -20.634965 16.037488 -40.474630
RightArm -3.724869 8.806264 25.420760
RightForeArm -28.115204 -0.000000 14.732132
RightHand -10.137980 0.000000 11.961336
RightHandThumb1 -24.326973 -0.000000 -32.862282
LeftUpLeg -18.912822 9.022409 -1.522372
LeftLeg 21.907687 -0.000000 -0.000000
LeftFoot -11.072952 -4.436610 -22.998554
LeftToeBase 9.219914 -0.000000 -0.000000
RightUpLeg -8.369304 -4.802601 -1.603133
RightLeg 1.435647 -0.000000 -0.000000
RightFoot -9.015718 -7.681032 2.951678
RightToeBase 1.311411 -0.000000 -0.000000
136
root -3.224292 33.033687 -2.966030 12.234688 5.210251 1.981574
Spine -9.701227 5.312888 4.153951
Head -10.165146 -1.495937 0.502923
LeftShoulder -15.279529 19.286658 20.645303
LeftArm 22.486599 -16.488746 -38.355363
LeftForeArm 12.162924 -0.000000 16.360436
LeftHand -25.245526 -0.000000 -7.581610
LeftHandThumb1 -26.253704 0.000000 33.147579
RightShoulder -20.580856 15.965138 -40.483510
RightArm -3.867318 9.090263 25.517577
RightForeArm -28.278290 -0.000000 14.801723
RightHand -10.091464 -0.000000 11.942785
RightHandThumb1 -24.326973 -0.000000 -32.862282
LeftUpLeg -19.631740 9.290683 -1.690774
LeftLeg 23.100567 -0.000000 -0.000000
LeftFoot -10.513829 -5.584865 -24.262901
LeftToeBase 9.051469 -0.000000 -0.000000
RightUpLeg -8.429150 -4.931758 -1.840613
RightLeg 1.418346 -0.000000 -0.000000
RightFoot -9.057790 -7.867441 2.950462
RightToeBase 1.342547 -0.000000 -0.000000
137
root -3.197496 33.036070 -2.995074 12.273167 5.419592 2.155105
Spine -9.598933 5.349300 4.250599
Head -10.102555 -1.258143 0.225507
LeftShoulder -15.213340 19.304189 20.466392
LeftArm 22.630421 -16.102366 -38.991486
LeftForeArm 12.025182 -0.000000 16.536526
LeftHand -25.257415 -0.000000 -7.845642
LeftHandThumb1 -26.253704 0.000000 33.147579
RightShoulder -20.551755 15.886283 -40.479581
RightArm -3.931938 9.174327 25.674981
RightForeArm -28.153698 -0.000000 14.850070
RightHand -10.128316 0.000000 11.807369
RightHandThumb1 -24.326973 -0.000000 -32.862282
LeftUpLeg -20.301491 9.654530 -1.782035
LeftLeg 24.269686 -0.000000 -0.000000
LeftFoot -9.763534 -6.878565 -25.753595
LeftToeBase 8.026119 -0.000000 -0.000000
RightUpLeg -8.444380 -5.046372 -2.033560
RightLeg 1.371955 -0.000000 -0.000000
RightFoot -9.076219 -7.991402 3.002044
RightToeBase 1.364639 -0.000000 -0.000000
